<svg xmlns="http://www.w3.org/2000/svg" width="208" height="45" viewBox="0 0 208 45" fill="none">
  <mask id="mask0_320_12" style="mask-type:luminance" maskUnits="userSpaceOnUse" x="0" y="0" width="208" height="45">
    <path d="M207.615 0.53772H-3.05176e-05V44.5907H207.615V0.53772Z" fill="white"/>
  </mask>
  <g mask="url(#mask0_320_12)">
    <path d="M200.843 30.6114V26.8407H192.265V23.07H199.941V19.5446H192.265V16.1111H200.377V12.4016H187.976V30.6114H200.843ZM177.595 19.1154C177.408 19.3913 177.129 19.6365 176.818 19.7898C176.476 19.9431 176.134 20.035 175.761 20.0964C175.388 20.1577 175.016 20.1883 174.643 20.1883H172.529V15.9578H174.922C175.264 15.9578 175.606 15.9884 175.948 16.0191C176.289 16.0804 176.6 16.1724 176.911 16.3257C177.191 16.4789 177.44 16.6935 177.626 16.9388C177.812 17.2453 177.906 17.6132 177.906 17.9811C177.906 18.3796 177.812 18.7781 177.595 19.1154ZM183.282 30.6114L178.465 22.8247C179.584 22.5182 180.579 21.9051 181.293 21.016C181.977 20.127 182.35 19.0234 182.319 17.8891C182.35 17.0001 182.132 16.0804 181.729 15.2833C181.356 14.6089 180.796 14.0264 180.113 13.5972C179.429 13.1681 178.652 12.8308 177.844 12.6775C177.005 12.4936 176.134 12.4016 175.264 12.4016H168.24V30.6114H172.591V23.3766H174.114L178.123 30.6114H183.282ZM158.139 23.7138C157.89 24.3576 157.517 24.9707 157.051 25.4918C156.585 25.9824 155.995 26.3809 155.373 26.6568C154.005 27.2392 152.451 27.2392 151.084 26.6568C150.462 26.3809 149.903 25.9824 149.436 25.4918C148.97 24.9707 148.597 24.3576 148.348 23.7138C147.82 22.2729 147.82 20.6788 148.348 19.238C148.566 18.5942 148.939 17.9811 149.436 17.4906C150.431 16.4789 151.799 15.8965 153.228 15.8965C153.974 15.8965 154.689 16.0191 155.373 16.3257C155.995 16.6015 156.585 17.0001 157.051 17.4906C157.517 18.0117 157.89 18.5942 158.139 19.238C158.419 19.9431 158.543 20.6788 158.543 21.4452C158.543 22.2116 158.419 22.9781 158.139 23.7138ZM162.552 17.4906C162.086 16.3563 161.371 15.314 160.439 14.4863C159.506 13.6585 158.419 13.0148 157.237 12.5856C154.627 11.6966 151.83 11.6966 149.219 12.5856C148.038 13.0148 146.981 13.6585 146.049 14.4863C145.147 15.3447 144.433 16.3563 143.935 17.4906C143.407 18.7475 143.158 20.0963 143.189 21.4452C143.189 22.7941 143.438 24.1123 143.935 25.3692C144.401 26.5342 145.117 27.5765 146.049 28.4348C146.95 29.2932 148.038 29.9677 149.219 30.3968C151.799 31.3165 154.658 31.3165 157.237 30.3968C158.419 29.9677 159.506 29.2932 160.439 28.4348C161.34 27.5765 162.055 26.5342 162.552 25.3692C163.081 24.1123 163.329 22.7635 163.298 21.4146C163.329 20.0657 163.049 18.7475 162.552 17.4906ZM140.516 28.067L137.408 25.1853C136.974 25.7371 136.445 26.1969 135.823 26.5342C135.108 26.902 134.3 27.0553 133.492 27.0553C132.778 27.0553 132.063 26.9327 131.379 26.6568C130.757 26.3809 130.198 26.013 129.732 25.5225C129.265 25.0013 128.892 24.4189 128.644 23.7751C128.364 23.0393 128.24 22.2729 128.24 21.5065C128.24 20.7402 128.364 20.0044 128.644 19.2993C128.892 18.6555 129.265 18.0424 129.732 17.5212C130.198 17.0307 130.788 16.6322 131.41 16.3563C132.094 16.0804 132.809 15.9271 133.555 15.9271C134.269 15.9271 134.984 16.0804 135.637 16.3257C136.29 16.6015 136.88 17.0307 137.284 17.6132L140.299 14.6395C139.46 13.7199 138.403 13.0454 137.222 12.6469C134.705 11.7579 131.97 11.7579 129.452 12.6469C128.271 13.0454 127.183 13.6892 126.251 14.5476C125.349 15.4059 124.603 16.4482 124.137 17.5826C123.609 18.8394 123.361 20.1883 123.361 21.5372C123.329 22.8861 123.609 24.2043 124.106 25.4305C125.069 27.7604 126.965 29.5691 129.359 30.4581C130.633 30.918 131.97 31.1633 133.306 31.1633C134.735 31.1939 136.134 30.918 137.44 30.3662C138.62 29.8144 139.646 29.0173 140.516 28.067ZM119.258 30.6114V26.8407H110.68V23.07H118.325V19.5446H110.68V16.1111H118.792V12.4016H106.391V30.6114H119.258ZM101.48 16.1417V12.4016H86.5925V16.1417H91.8141V30.5808H96.2585V16.1417H101.48ZM81.7132 12.4016H77.2375V30.6114H81.7132V12.4016ZM71.7982 14.1797C70.9591 13.4439 69.9956 12.8615 68.9393 12.5243C67.9132 12.1564 66.8257 11.9725 65.7376 11.9725C64.8678 11.9725 63.9975 12.0644 63.1584 12.279C62.35 12.4936 61.5729 12.8308 60.8583 13.3213C60.1744 13.7812 59.615 14.3943 59.2108 15.0994C58.7759 15.8965 58.5582 16.7855 58.5894 17.7052C58.5275 19.054 59.0556 20.3416 60.0504 21.2613C60.4853 21.6598 61.0135 21.997 61.5729 22.2423C62.1328 22.4875 62.7229 22.7328 63.3136 22.9167C63.9355 23.1007 64.4636 23.2846 64.9298 23.4379C65.3647 23.5605 65.7689 23.7445 66.1418 23.9897C66.4215 24.1736 66.6705 24.3882 66.8876 24.6335C67.0741 24.8787 67.1673 25.1853 67.1366 25.4918C67.1366 25.7984 67.0741 26.1356 66.9189 26.4115C66.7944 26.6568 66.608 26.8714 66.3595 27.0246C66.1111 27.178 65.8308 27.3006 65.5511 27.3619C65.2407 27.4232 64.8985 27.4538 64.5881 27.4538C63.811 27.4538 63.0651 27.2699 62.3812 26.902C61.6974 26.5648 61.076 26.105 60.6098 25.5225L57.6884 28.4655C58.5582 29.3239 59.615 29.9983 60.765 30.3968C61.9771 30.8567 63.2823 31.1019 64.5881 31.1019C65.4892 31.1019 66.3595 30.9793 67.2299 30.7341C68.0377 30.5195 68.8148 30.1209 69.4987 29.6304C70.1513 29.1093 70.6795 28.4655 71.0524 27.7298C71.4566 26.902 71.6743 25.9517 71.643 25.032C71.6743 24.2349 71.4878 23.4379 71.0836 22.7635C70.742 22.181 70.2758 21.6598 69.7159 21.2306C69.1565 20.8014 68.5351 20.4949 67.8825 20.2496C67.1986 20.0044 66.546 19.7592 65.9241 19.5752C65.4892 19.4525 65.085 19.2993 64.7433 19.1767C64.4324 19.054 64.122 18.9314 63.8417 18.7475C63.3755 18.4716 63.0651 17.9811 63.0958 17.4292C63.0958 17.1227 63.1584 16.8161 63.3448 16.5403C63.5 16.3257 63.7178 16.1111 63.9662 15.9884C64.2152 15.8351 64.4949 15.7432 64.7746 15.6819C65.085 15.6205 65.3647 15.6205 65.6756 15.6205C66.9502 15.6512 68.1309 16.2336 68.9393 17.184L71.7982 14.1797Z" fill="white"/>
    <path d="M21.321 32.6653C23.0615 32.4507 24.7709 31.9296 26.2938 31.0712C30.0545 28.9866 32.2301 25.4304 32.4166 21.0466L32.4476 20.6787H37.6691C37.3583 18.1343 36.3637 15.7124 34.8408 13.6278L29.495 16.9693C31.1112 19.3911 31.3288 22.4568 30.0856 25.0626C28.6248 28.3734 25.1749 31.2551 21.321 32.6653Z" fill="#EB1F1F"/>
    <path d="M37.7312 21.4457H33.1936C32.8828 25.8908 30.5206 29.6309 26.6668 31.7461C24.429 32.9417 21.9426 33.5855 19.394 33.5549C17.3738 33.5549 15.3536 33.187 13.4577 32.4819C15.7266 33.9228 18.3994 34.6892 21.1034 34.6892H21.1345C26.0141 34.6892 30.4896 32.0834 32.8517 27.8528L33.0692 27.4849L36.1151 29.3856C37.2029 27.2703 37.7934 24.9098 37.7934 22.5186C37.7623 22.1814 37.7623 21.8135 37.7312 21.4457Z" fill="#EB1F1F"/>
    <path d="M21.1344 35.4858C16.2548 35.4858 11.686 33.0947 8.42261 29.0174C12.0279 36.6202 21.2276 39.9003 28.9044 36.3136C31.7637 34.9954 34.1569 32.8188 35.742 30.121L33.3799 28.6495C30.8002 32.9107 26.1693 35.5165 21.1344 35.4858Z" fill="#EB1F1F"/>
    <path d="M22.3465 38.5514C13.3954 38.5514 6.12274 31.3779 6.12274 22.5489C6.12274 13.7199 13.3954 6.54633 22.3465 6.54633C31.2975 6.54633 38.5703 13.7199 38.5703 22.5489C38.5703 31.3779 31.3286 38.5514 22.3465 38.5514C22.3776 38.5514 22.3776 38.5514 22.3465 38.5514ZM22.3465 0.53772C10.0077 0.53772 -3.05176e-05 10.3784 -3.05176e-05 22.5489C-3.05176e-05 34.7194 9.97668 44.5907 22.3155 44.5907C34.6542 44.5907 44.662 34.75 44.662 22.5795V22.5489C44.662 10.409 34.6853 0.53772 22.3776 0.53772H22.3465Z" fill="#EB1F1F"/>
    <path d="M205.408 14.1185V13.536H205.75C205.843 13.536 205.936 13.5667 206.03 13.5973C206.123 13.628 206.185 13.72 206.154 13.8119C206.154 13.9039 206.092 14.0265 205.998 14.0572C205.905 14.0879 205.781 14.1185 205.687 14.1185H205.408ZM205.035 15.2528H205.408V14.3944H205.657L206.123 15.2528H206.589L206.03 14.3638C206.154 14.3331 206.278 14.2718 206.371 14.1798C206.465 14.0879 206.496 13.9346 206.496 13.8119C206.496 13.628 206.403 13.4441 206.247 13.3521C206.185 13.2908 206.092 13.2602 205.998 13.2602C205.905 13.2295 205.812 13.2295 205.719 13.2295H205.035V15.2528ZM204.32 13.6587C204.475 13.2908 204.755 13.0149 205.128 12.8616C205.532 12.7083 205.936 12.7083 206.34 12.8616C206.527 12.9229 206.713 13.0456 206.838 13.1988C207.117 13.4748 207.273 13.8733 207.273 14.2718C207.273 14.4864 207.242 14.6703 207.148 14.8543C206.993 15.2221 206.713 15.5287 206.34 15.682C205.936 15.8353 205.532 15.8353 205.128 15.682C204.942 15.6207 204.755 15.4981 204.631 15.3448C204.475 15.1915 204.382 15.0382 204.289 14.8543C204.196 14.6703 204.165 14.4864 204.165 14.2718C204.165 14.0572 204.227 13.8426 204.32 13.6587ZM204.071 14.9462C204.351 15.6207 205.035 16.0192 205.75 16.0192C206.247 16.0192 206.713 15.8353 207.055 15.4981C207.21 15.3448 207.366 15.1608 207.459 14.9462C207.646 14.4864 207.646 13.9959 207.459 13.536C207.366 13.3215 207.242 13.1375 207.055 12.9842C206.9 12.831 206.682 12.6777 206.465 12.6164C205.998 12.4018 205.501 12.4018 205.035 12.6164C204.818 12.7083 204.631 12.831 204.444 12.9842C204.289 13.1375 204.134 13.3521 204.041 13.5667C203.854 13.9959 203.854 14.5171 204.071 14.9462Z" fill="white"/>
  </g>
</svg>