<svg xmlns="http://www.w3.org/2000/svg" xmlns:xlink="http://www.w3.org/1999/xlink" zoomAndPan="magnify" preserveAspectRatio="xMidYMid meet" version="1.0" viewBox="28.74 171.83 314.84 34.67"><defs><g/></defs><g fill="#ffffff" fill-opacity="1"><g transform="translate(28.031898, 205.615182)"><g><path d="M 13.015625 0.84375 C 10.628906 0.84375 8.332031 0.425781 6.125 -0.40625 C 3.925781 -1.25 2.117188 -2.414062 0.703125 -3.90625 L 5.90625 -9.203125 C 6.707031 -8.179688 7.765625 -7.34375 9.078125 -6.6875 C 10.398438 -6.039062 11.710938 -5.71875 13.015625 -5.71875 C 14.347656 -5.71875 15.4375 -6.003906 16.28125 -6.578125 C 17.132812 -7.148438 17.5625 -8.054688 17.5625 -9.296875 C 17.5625 -10.097656 17.304688 -10.753906 16.796875 -11.265625 C 16.285156 -11.773438 15.59375 -12.207031 14.71875 -12.5625 C 13.851562 -12.925781 12.523438 -13.398438 10.734375 -13.984375 C 9.085938 -14.515625 7.660156 -15.132812 6.453125 -15.84375 C 5.242188 -16.5625 4.253906 -17.535156 3.484375 -18.765625 C 2.710938 -20.003906 2.328125 -21.554688 2.328125 -23.421875 C 2.328125 -25.710938 2.9375 -27.628906 4.15625 -29.171875 C 5.382812 -30.722656 6.960938 -31.867188 8.890625 -32.609375 C 10.828125 -33.359375 12.882812 -33.734375 15.0625 -33.734375 C 16.976562 -33.734375 18.90625 -33.382812 20.84375 -32.6875 C 22.78125 -31.988281 24.445312 -30.988281 25.84375 -29.6875 L 20.765625 -24.34375 C 20.117188 -25.1875 19.242188 -25.867188 18.140625 -26.390625 C 17.046875 -26.921875 15.972656 -27.1875 14.921875 -27.1875 C 13.679688 -27.1875 12.601562 -26.929688 11.6875 -26.421875 C 10.769531 -25.910156 10.3125 -25.066406 10.3125 -23.890625 C 10.3125 -23.203125 10.503906 -22.625 10.890625 -22.15625 C 11.285156 -21.695312 11.828125 -21.316406 12.515625 -21.015625 C 13.210938 -20.722656 14.164062 -20.394531 15.375 -20.03125 C 17.363281 -19.4375 19.0625 -18.789062 20.46875 -18.09375 C 21.875 -17.394531 23.082031 -16.394531 24.09375 -15.09375 C 25.101562 -13.800781 25.609375 -12.144531 25.609375 -10.125 C 25.609375 -7.707031 25.023438 -5.675781 23.859375 -4.03125 C 22.703125 -2.394531 21.171875 -1.171875 19.265625 -0.359375 C 17.359375 0.441406 15.273438 0.84375 13.015625 0.84375 Z M 13.015625 0.84375 "/></g></g></g><g fill="#ffffff" fill-opacity="1"><g transform="translate(59.992935, 205.615182)"><g><path d="M 17.09375 0.890625 C 14.25 0.890625 11.769531 0.332031 9.65625 -0.78125 C 7.550781 -1.90625 5.925781 -3.460938 4.78125 -5.453125 C 3.632812 -7.453125 3.0625 -9.769531 3.0625 -12.40625 L 3.0625 -32.90625 L 10.96875 -32.90625 L 10.96875 -13.0625 C 10.96875 -11.820312 11.179688 -10.6875 11.609375 -9.65625 C 12.046875 -8.632812 12.722656 -7.8125 13.640625 -7.1875 C 14.554688 -6.570312 15.722656 -6.265625 17.140625 -6.265625 C 18.566406 -6.265625 19.742188 -6.570312 20.671875 -7.1875 C 21.609375 -7.8125 22.285156 -8.632812 22.703125 -9.65625 C 23.117188 -10.6875 23.328125 -11.820312 23.328125 -13.0625 L 23.328125 -32.90625 L 31.28125 -32.90625 L 31.28125 -12.40625 C 31.28125 -9.800781 30.695312 -7.492188 29.53125 -5.484375 C 28.363281 -3.472656 26.703125 -1.90625 24.546875 -0.78125 C 22.398438 0.332031 19.914062 0.890625 17.09375 0.890625 Z M 17.09375 0.890625 "/></g></g></g><g fill="#ffffff" fill-opacity="1"><g transform="translate(98.782593, 205.615182)"><g><path d="M 19.9375 0.84375 C 16.46875 0.84375 13.359375 0.113281 10.609375 -1.34375 C 7.867188 -2.800781 5.722656 -4.835938 4.171875 -7.453125 C 2.628906 -10.078125 1.859375 -13.09375 1.859375 -16.5 C 1.859375 -19.9375 2.640625 -22.960938 4.203125 -25.578125 C 5.765625 -28.191406 7.898438 -30.210938 10.609375 -31.640625 C 13.328125 -33.066406 16.359375 -33.78125 19.703125 -33.78125 C 22.242188 -33.78125 24.644531 -33.382812 26.90625 -32.59375 C 29.164062 -31.800781 30.992188 -30.742188 32.390625 -29.421875 L 27.375 -23.703125 C 26.5625 -24.628906 25.515625 -25.367188 24.234375 -25.921875 C 22.953125 -26.484375 21.535156 -26.765625 19.984375 -26.765625 C 18.148438 -26.765625 16.5 -26.320312 15.03125 -25.4375 C 13.5625 -24.5625 12.40625 -23.335938 11.5625 -21.765625 C 10.726562 -20.203125 10.3125 -18.445312 10.3125 -16.5 C 10.3125 -14.476562 10.707031 -12.6875 11.5 -11.125 C 12.289062 -9.5625 13.4375 -8.335938 14.9375 -7.453125 C 16.4375 -6.578125 18.242188 -6.140625 20.359375 -6.140625 C 22.304688 -6.140625 23.960938 -6.429688 25.328125 -7.015625 L 25.328125 -13.015625 L 19.046875 -13.015625 L 19.046875 -19.421875 L 32.625 -19.421875 L 32.625 -2 C 30.945312 -1.132812 29.023438 -0.445312 26.859375 0.0625 C 24.691406 0.582031 22.382812 0.84375 19.9375 0.84375 Z M 19.9375 0.84375 "/></g></g></g><g fill="#eb1f1f" fill-opacity="1"><g transform="translate(139.020172, 205.615182)"><g><path d="M 19.5625 0.890625 C 16.21875 0.890625 13.195312 0.15625 10.5 -1.3125 C 7.800781 -2.789062 5.6875 -4.847656 4.15625 -7.484375 C 2.625 -10.117188 1.859375 -13.125 1.859375 -16.5 C 1.859375 -19.9375 2.640625 -22.960938 4.203125 -25.578125 C 5.765625 -28.191406 7.898438 -30.210938 10.609375 -31.640625 C 13.328125 -33.066406 16.359375 -33.78125 19.703125 -33.78125 C 22.085938 -33.78125 24.398438 -33.351562 26.640625 -32.5 C 28.890625 -31.65625 30.679688 -30.472656 32.015625 -28.953125 L 26.625 -23.5625 C 25.914062 -24.550781 24.960938 -25.300781 23.765625 -25.8125 C 22.578125 -26.320312 21.316406 -26.578125 19.984375 -26.578125 C 18.148438 -26.578125 16.515625 -26.144531 15.078125 -25.28125 C 13.640625 -24.414062 12.515625 -23.210938 11.703125 -21.671875 C 10.898438 -20.140625 10.5 -18.414062 10.5 -16.5 C 10.5 -14.507812 10.894531 -12.753906 11.6875 -11.234375 C 12.476562 -9.722656 13.582031 -8.539062 15 -7.6875 C 16.425781 -6.832031 18.039062 -6.40625 19.84375 -6.40625 C 21.363281 -6.40625 22.726562 -6.707031 23.9375 -7.3125 C 25.144531 -7.914062 26.101562 -8.734375 26.8125 -9.765625 L 32.34375 -4.546875 C 30.851562 -2.816406 29.023438 -1.476562 26.859375 -0.53125 C 24.691406 0.414062 22.257812 0.890625 19.5625 0.890625 Z M 19.5625 0.890625 "/></g></g></g><g fill="#eb1f1f" fill-opacity="1"><g transform="translate(175.858796, 205.615182)"><g><path d="M 19.75 0.890625 C 16.34375 0.890625 13.28125 0.15625 10.5625 -1.3125 C 7.851562 -2.789062 5.722656 -4.851562 4.171875 -7.5 C 2.628906 -10.15625 1.859375 -13.1875 1.859375 -16.59375 C 1.859375 -20.03125 2.625 -23.046875 4.15625 -25.640625 C 5.6875 -28.242188 7.816406 -30.25 10.546875 -31.65625 C 13.273438 -33.070312 16.34375 -33.78125 19.75 -33.78125 C 23.1875 -33.78125 26.257812 -33.070312 28.96875 -31.65625 C 31.6875 -30.25 33.816406 -28.242188 35.359375 -25.640625 C 36.910156 -23.046875 37.6875 -20.03125 37.6875 -16.59375 C 37.6875 -13.1875 36.910156 -10.15625 35.359375 -7.5 C 33.816406 -4.851562 31.679688 -2.789062 28.953125 -1.3125 C 26.222656 0.15625 23.15625 0.890625 19.75 0.890625 Z M 19.75 -6.359375 C 21.570312 -6.359375 23.195312 -6.789062 24.625 -7.65625 C 26.050781 -8.53125 27.164062 -9.75 27.96875 -11.3125 C 28.78125 -12.875 29.1875 -14.632812 29.1875 -16.59375 C 29.1875 -18.476562 28.78125 -20.1875 27.96875 -21.71875 C 27.164062 -23.257812 26.050781 -24.460938 24.625 -25.328125 C 23.195312 -26.191406 21.570312 -26.625 19.75 -26.625 C 17.914062 -26.625 16.285156 -26.191406 14.859375 -25.328125 C 13.441406 -24.460938 12.335938 -23.269531 11.546875 -21.75 C 10.753906 -20.226562 10.359375 -18.507812 10.359375 -16.59375 C 10.359375 -14.632812 10.753906 -12.875 11.546875 -11.3125 C 12.335938 -9.75 13.441406 -8.53125 14.859375 -7.65625 C 16.285156 -6.789062 17.914062 -6.359375 19.75 -6.359375 Z M 19.75 -6.359375 "/></g></g></g><g fill="#eb1f1f" fill-opacity="1"><g transform="translate(219.897663, 205.615182)"><g><path d="M 11.109375 0 L 3.390625 0 L 3.390625 -32.90625 L 12.453125 -32.90625 L 25.65625 -11.4375 L 25.796875 -11.4375 L 25.609375 -32.90625 L 33.3125 -32.90625 L 33.3125 0 L 24.296875 0 L 11.0625 -21.515625 L 10.921875 -21.515625 Z M 11.109375 0 "/></g></g></g><g fill="#000000" fill-opacity="1"><g transform="translate(261.106101, 205.615182)"><g/></g></g><g fill="#ffffff" fill-opacity="1"><g transform="translate(277.2311, 205.615182)"><g><path d="M 3.390625 0 L 3.390625 -32.90625 L 15.46875 -32.90625 C 19.375 -32.90625 22.492188 -32.101562 24.828125 -30.5 C 27.171875 -28.90625 28.34375 -26.328125 28.34375 -22.765625 C 28.34375 -20.347656 27.753906 -18.363281 26.578125 -16.8125 C 25.398438 -15.269531 23.832031 -14.148438 21.875 -13.453125 C 19.925781 -12.753906 17.726562 -12.40625 15.28125 -12.40625 L 11.34375 -12.40625 L 11.34375 0 Z M 14.6875 -18.734375 C 16.382812 -18.734375 17.757812 -19.039062 18.8125 -19.65625 C 19.875 -20.269531 20.40625 -21.289062 20.40625 -22.71875 C 20.40625 -24.175781 19.890625 -25.164062 18.859375 -25.6875 C 17.835938 -26.21875 16.492188 -26.484375 14.828125 -26.484375 L 11.34375 -26.484375 L 11.34375 -18.734375 Z M 14.6875 -18.734375 "/></g></g></g><g fill="#ffffff" fill-opacity="1"><g transform="translate(311.468345, 205.615182)"><g><path d="M 11.34375 0 L 3.390625 0 L 3.390625 -32.90625 L 11.34375 -32.90625 L 11.34375 -20.453125 L 24.15625 -20.453125 L 24.15625 -32.90625 L 32.109375 -32.90625 L 32.109375 0 L 24.15625 0 L 24.15625 -13.75 L 11.34375 -13.75 Z M 11.34375 0 "/></g></g></g></svg>