<svg xmlns="http://www.w3.org/2000/svg" width="50" height="74" viewBox="0 0 50 74" fill="none">
  <g clip-path="url(#clip0_1_244)">
    <mask id="mask0_1_244" style="mask-type:luminance" maskUnits="userSpaceOnUse" x="0" y="5" width="50" height="63">
      <path d="M49.3279 5.57983H0.454041V67.842H49.3279V5.57983Z" fill="white"/>
    </mask>
    <g mask="url(#mask0_1_244)">
      <path d="M5.13137 61.9015C4.97263 61.6993 4.76388 61.5384 4.50947 61.4209C4.25288 61.3013 4.00716 61.2426 3.76796 61.2426C3.64619 61.2426 3.52007 61.2535 3.39395 61.2752C3.26783 61.297 3.15476 61.3383 3.05256 61.3992C2.95253 61.4601 2.86555 61.5405 2.79814 61.6384C2.72856 61.7362 2.69594 61.8602 2.69594 62.0124C2.69594 62.1429 2.72421 62.2516 2.7764 62.3364C2.83076 62.4234 2.91122 62.4995 3.01559 62.5647C3.11997 62.6299 3.24391 62.6887 3.3896 62.743C3.53312 62.7974 3.69621 62.8539 3.87669 62.9104C4.13763 62.9974 4.40726 63.0931 4.68777 63.1975C4.97046 63.3019 5.22487 63.441 5.45537 63.615C5.68586 63.7889 5.87722 64.002 6.02943 64.2586C6.18165 64.5152 6.25776 64.8349 6.25776 65.2176C6.25776 65.6568 6.1773 66.0374 6.01421 66.3592C5.85113 66.681 5.63368 66.9463 5.35969 67.1551C5.08571 67.3638 4.7704 67.5204 4.41814 67.6204C4.06369 67.7204 3.70056 67.7726 3.32437 67.7726C2.7764 67.7726 2.24582 67.6769 1.73264 67.4856C1.21946 67.2942 0.793261 67.0224 0.454041 66.668L1.66741 65.4329C1.85441 65.6634 2.1023 65.8569 2.40891 66.0135C2.71551 66.1678 3.01994 66.2461 3.32437 66.2461C3.46136 66.2461 3.59618 66.2331 3.72447 66.2026C3.85494 66.1744 3.96802 66.1265 4.06587 66.0613C4.16372 65.9961 4.23983 65.9091 4.29854 65.8025C4.35508 65.6938 4.38552 65.5633 4.38552 65.4133C4.38552 65.2633 4.34855 65.1458 4.2768 65.0458C4.20504 64.9458 4.10066 64.8523 3.96802 64.7696C3.8332 64.687 3.66794 64.6109 3.47006 64.5413C3.27218 64.4739 3.04603 64.3978 2.79379 64.3195C2.54808 64.2412 2.30888 64.1456 2.07404 64.039C1.83919 63.9303 1.63044 63.7911 1.44561 63.6215C1.26078 63.4519 1.11291 63.2453 1.00201 63.004C0.891113 62.7626 0.834576 62.469 0.834576 62.1211C0.834576 61.6949 0.921556 61.3296 1.09552 61.0273C1.26947 60.7251 1.49562 60.475 1.77613 60.2793C2.05881 60.0836 2.37629 59.9423 2.72856 59.8509C3.08083 59.7596 3.43962 59.7161 3.80058 59.7161C4.23331 59.7161 4.67473 59.7966 5.12702 59.9553C5.57714 60.1141 5.9729 60.3489 6.31212 60.6599L5.13137 61.9037V61.9015Z" fill="white"/>
      <path d="M14.1772 65.9461C14.0229 66.3244 13.7989 66.6506 13.5118 66.9202C13.2226 67.1899 12.8747 67.4008 12.4659 67.553C12.0571 67.7052 11.6048 67.7791 11.1069 67.7791C10.6089 67.7791 10.1479 67.703 9.74345 67.553C9.339 67.4008 8.99543 67.1899 8.71492 66.9202C8.43224 66.6484 8.21696 66.3244 8.06475 65.9461C7.91253 65.5677 7.83643 65.1458 7.83643 64.6848V59.9097H9.67822V64.5326C9.67822 64.7414 9.70431 64.9393 9.75868 65.1284C9.81304 65.3155 9.89567 65.4851 10.0066 65.6308C10.1196 65.7786 10.2675 65.896 10.4502 65.983C10.635 66.07 10.8568 66.1135 11.1156 66.1135C11.3743 66.1135 11.5961 66.07 11.781 65.983C11.9658 65.896 12.1158 65.7786 12.2311 65.6308C12.3463 65.4829 12.429 65.3155 12.479 65.1284C12.529 64.9414 12.5551 64.7414 12.5551 64.5326V59.9097H14.4077V64.6848C14.4077 65.148 14.3295 65.5677 14.1751 65.9461" fill="white"/>
      <path d="M21.8314 67.5878C21.3291 67.7095 20.7833 67.7726 20.1919 67.7726C19.6004 67.7726 19.0133 67.6747 18.4979 67.4812C17.9826 67.2855 17.539 67.0115 17.1672 66.6592C16.7953 66.3048 16.5039 65.8808 16.2952 65.3872C16.0864 64.8936 15.9821 64.3412 15.9821 63.7367C15.9821 63.1322 16.0886 62.5669 16.3017 62.0689C16.5148 61.5709 16.8084 61.1469 17.1845 60.7968C17.5607 60.4467 18 60.1771 18.5066 59.9901C19.0111 59.8031 19.5569 59.7074 20.1419 59.7074C20.7268 59.7074 21.3117 59.7987 21.8314 59.9836C22.3511 60.1684 22.773 60.4141 23.0992 60.7251L21.9293 62.0558C21.7488 61.8471 21.5096 61.6753 21.2139 61.5405C20.9181 61.4079 20.5833 61.3404 20.2071 61.3404C19.8831 61.3404 19.583 61.3992 19.309 61.5187C19.035 61.6383 18.7958 61.8036 18.5936 62.0167C18.3914 62.2298 18.2348 62.482 18.1218 62.7756C18.0109 63.067 17.9543 63.3866 17.9543 63.7346C17.9543 64.0825 18.0043 64.413 18.1065 64.7087C18.2066 65.0045 18.3566 65.2589 18.5567 65.472C18.7545 65.6851 19.0002 65.8503 19.2916 65.9699C19.583 66.0895 19.9179 66.1482 20.2941 66.1482C20.5093 66.1482 20.7159 66.133 20.9116 66.1004C21.1073 66.0678 21.2878 66.0156 21.4531 65.9438V64.5478H19.9918V63.0539H23.1535V67.1137C22.7773 67.3094 22.3403 67.4682 21.838 67.5899" fill="white"/>
      <path d="M30.586 67.4399C30.088 67.6682 29.514 67.7813 28.8638 67.7813C28.2723 67.7813 27.7244 67.6834 27.2242 67.4899C26.7219 67.2942 26.287 67.018 25.9195 66.6614C25.5521 66.3026 25.2628 65.8764 25.0541 65.3785C24.8453 64.8805 24.741 64.3326 24.741 63.7324C24.741 63.1322 24.8475 62.5625 25.0606 62.0646C25.2737 61.5666 25.5673 61.1426 25.9435 60.7925C26.3196 60.4424 26.7589 60.1728 27.2656 59.9857C27.77 59.7987 28.3158 59.7031 28.9008 59.7031C29.4422 59.7031 29.975 59.7987 30.4968 59.9901C31.0209 60.1815 31.4449 60.462 31.7689 60.8294L30.5142 62.0841C30.3403 61.8449 30.1141 61.6688 29.8315 61.5536C29.5488 61.4383 29.2617 61.3796 28.966 61.3796C28.642 61.3796 28.3441 61.4383 28.0723 61.5579C27.8005 61.6775 27.5678 61.8406 27.3743 62.0515C27.1807 62.2624 27.0285 62.5082 26.9198 62.793C26.8111 63.0779 26.7567 63.391 26.7567 63.7302C26.7567 64.0694 26.8111 64.3934 26.9198 64.6826C27.0285 64.9719 27.1786 65.2176 27.3699 65.4241C27.5613 65.6307 27.7896 65.7916 28.0571 65.9069C28.3245 66.0221 28.6159 66.0808 28.9356 66.0808C29.3031 66.0808 29.6249 66.0091 29.8989 65.8634C30.1728 65.7177 30.3925 65.5307 30.5599 65.3002L31.8494 66.5136C31.5102 66.9028 31.0905 67.2116 30.5925 67.4399" fill="white"/>
      <path d="M47.5317 59.9097L47.5752 64.9132H47.5404L44.4657 59.9097H42.3542V67.5747H44.1526L44.1091 62.5625H44.1417L47.2273 67.5747H49.3278V59.9097H47.5317Z" fill="white"/>
      <path d="M39.2231 63.7324C39.2231 65.0262 38.1576 66.0743 36.8442 66.0743C35.5308 66.0743 34.4675 65.0262 34.4675 63.7324C34.4675 62.4385 35.5308 61.3904 36.8442 61.3904C38.1576 61.3904 39.2231 62.4385 39.2231 63.7324ZM41.0149 63.7324C41.0149 61.4644 39.147 59.6248 36.8442 59.6248C34.5414 59.6248 32.6735 61.4644 32.6735 63.7324C32.6735 66.0004 34.5414 67.84 36.8442 67.84C39.147 67.84 41.0149 66.0004 41.0149 63.7324Z" fill="white"/>
    </g>
    <path d="M39.5819 44.8491V19.9881C39.5819 18.429 38.3163 17.1635 36.7572 17.1635H13.0248C11.4657 17.1635 10.2001 18.429 10.2001 19.9881V36.3729C10.2001 37.9342 11.4657 39.1976 13.0248 39.1976H33.5542L39.5819 44.8491Z" fill="white"/>
    <path d="M49.1061 49.6677V10.179C49.1061 7.72833 47.1186 5.74084 44.668 5.74084H5.09658C2.64593 5.74084 0.658447 7.72833 0.658447 10.179V49.6677C0.658447 52.1184 2.64593 54.1059 5.09658 54.1059H44.6767C47.1273 54.1059 49.1148 52.1184 49.1148 49.6677" fill="#EB1F1F"/>
    <path d="M39.6101 45.9691L32.53 39.1151H11.1961C10.6242 39.1151 10.1545 38.6519 10.1545 38.0735V18.253C10.1545 17.6811 10.6176 17.2114 11.1961 17.2114H38.5729C39.1448 17.2114 39.6145 17.6746 39.6145 18.253V45.9625L39.608 45.9691H39.6101Z" fill="white"/>
  </g>
  <defs>
    <clipPath id="clip0_1_244">
      <rect width="48.926" height="73.4199" fill="white" transform="translate(0.427979)"/>
    </clipPath>
  </defs>
</svg>