<svg xmlns="http://www.w3.org/2000/svg" width="190" height="32" viewBox="0 0 190 32" fill="none">
  <path d="M18.131 8.83459C17.5164 8.05215 16.71 7.4286 15.7177 6.96693C14.7254 6.50526 13.7661 6.27443 12.8428 6.27443C12.3661 6.27443 11.8834 6.3164 11.3948 6.40034C10.9062 6.48428 10.4655 6.64616 10.0728 6.88299C9.68003 7.11982 9.35327 7.4286 9.08646 7.80633C8.81965 8.18406 8.68775 8.66671 8.68775 9.25428C8.68775 9.75792 8.79267 10.1776 9.00252 10.5134C9.21237 10.8491 9.52114 11.1429 9.92585 11.3947C10.3306 11.6466 10.8132 11.8774 11.3738 12.0872C11.9344 12.2971 12.564 12.5159 13.2624 12.7378C14.2697 13.0735 15.319 13.4453 16.4102 13.85C17.5014 14.2547 18.4967 14.7943 19.39 15.4658C20.2864 16.1373 21.0269 16.9707 21.6144 17.963C22.202 18.9583 22.4958 20.1934 22.4958 21.6773C22.4958 23.3831 22.181 24.8581 21.5515 26.1052C20.9219 27.3523 20.0766 28.3775 19.0123 29.1899C17.9481 30.0023 16.731 30.6019 15.3609 30.9946C13.9909 31.3844 12.5759 31.5822 11.122 31.5822C8.99353 31.5822 6.94 31.2105 4.95243 30.47C2.96486 29.7295 1.31305 28.6713 0 27.3013L4.70061 22.5167C5.42909 23.4131 6.3854 24.1626 7.57554 24.7621C8.76569 25.3647 9.94684 25.6645 11.122 25.6645C11.6526 25.6645 12.1712 25.6105 12.6749 25.4966C13.1785 25.3857 13.6192 25.2028 13.9969 24.951C14.3747 24.6992 14.6744 24.3634 14.8993 23.9437C15.1241 23.524 15.235 23.0204 15.235 22.4328C15.235 21.8452 15.0941 21.3985 14.8153 21.0058C14.5335 20.6161 14.1378 20.2594 13.6192 19.9356C13.1006 19.6148 12.459 19.321 11.6886 19.0542C10.9181 18.7874 10.0458 18.5026 9.06547 18.1938C8.11516 17.8851 7.18283 17.5223 6.27448 17.1026C5.36314 16.6829 4.55372 16.1433 3.84023 15.4868C3.12675 14.8303 2.55416 14.0328 2.11948 13.0945C1.68479 12.1562 1.46894 11.017 1.46894 9.67398C1.46894 8.02217 1.8047 6.61019 2.47622 5.43503C3.14774 4.25988 4.0291 3.29458 5.12031 2.53912C6.21152 1.78366 7.44064 1.23206 8.81365 0.881312C10.1837 0.533562 11.5687 0.356689 12.9687 0.356689C14.6475 0.356689 16.3622 0.665467 18.11 1.28002C19.8577 1.89458 21.3896 2.80593 22.7057 4.00806L18.131 8.83459Z" fill="white"/>
  <path d="M53.1966 24.5134C52.5941 25.9823 51.7337 27.2414 50.6155 28.2907C49.4943 29.3399 48.1453 30.1583 46.5654 30.7459C44.9856 31.3335 43.2288 31.6273 41.2982 31.6273C39.3676 31.6273 37.5779 31.3335 36.01 30.7459C34.4422 30.1583 33.1141 29.3399 32.0229 28.2907C30.9317 27.2414 30.0923 25.9823 29.5047 24.5134C28.9171 23.0444 28.6234 21.4136 28.6234 19.6239V1.11523H35.7582V19.0363C35.7582 19.8487 35.8631 20.6162 36.073 21.3447C36.2828 22.0732 36.6036 22.7237 37.0383 23.2963C37.473 23.8719 38.0456 24.3245 38.7591 24.6603C39.4725 24.996 40.3329 25.1639 41.3402 25.1639C42.3475 25.1639 43.2079 24.996 43.9213 24.6603C44.6348 24.3245 45.2134 23.8689 45.6631 23.2963C46.1098 22.7237 46.4305 22.0732 46.6284 21.3447C46.8232 20.6162 46.9222 19.8458 46.9222 19.0363V1.11523H54.099V19.6239C54.099 21.4166 53.7992 23.0444 53.1966 24.5134Z" fill="white"/>
  <path d="M82.8693 30.8717C80.9237 31.3484 78.8042 31.5852 76.5109 31.5852C74.2175 31.5852 71.9422 31.2075 69.9426 30.452C67.9431 29.6965 66.2223 28.6323 64.7803 27.2623C63.3384 25.8923 62.2142 24.2465 61.4018 22.3308C60.5893 20.4152 60.1846 18.2808 60.1846 15.9275C60.1846 13.5742 60.5983 11.3947 61.4227 9.46411C62.2501 7.5335 63.3893 5.89068 64.8433 4.53266C66.2972 3.17464 68.003 2.13439 69.9636 1.40591C71.9212 0.680434 74.0347 0.314697 76.301 0.314697C78.5674 0.314697 80.8338 0.67144 82.8483 1.38493C84.8629 2.09841 86.4997 3.05772 87.7588 4.25986L83.2261 9.42214C82.5276 8.61272 81.6042 7.9472 80.456 7.42858C79.3079 6.90995 78.0068 6.65213 76.5529 6.65213C75.2938 6.65213 74.1306 6.88297 73.0694 7.34464C72.0051 7.8063 71.0818 8.45084 70.2993 9.27524C69.5169 10.0997 68.9084 11.0799 68.4737 12.2131C68.039 13.3463 67.8231 14.5844 67.8231 15.9275C67.8231 17.2705 68.018 18.5596 68.4107 19.7047C68.8004 20.8529 69.382 21.8392 70.1525 22.6636C70.9199 23.491 71.8732 24.1355 73.0064 24.5942C74.1396 25.0559 75.4347 25.2867 76.8886 25.2867C77.728 25.2867 78.5254 25.2238 79.2809 25.0979C80.0363 24.9719 80.7348 24.7681 81.3794 24.4893V19.0752H75.7135V13.2834H87.9686V29.022C86.5117 29.7775 84.8149 30.392 82.8693 30.8687" fill="white"/>
  <path d="M116.805 30.3053C114.874 31.1867 112.65 31.6273 110.132 31.6273C107.838 31.6273 105.719 31.2496 103.773 30.4941C101.828 29.7387 100.143 28.6685 98.7159 27.2835C97.289 25.8985 96.1708 24.2406 95.3584 22.31C94.5459 20.3794 94.1412 18.254 94.1412 15.9306C94.1412 13.6073 94.5549 11.3979 95.3793 9.46728C96.2067 7.53667 97.3459 5.89386 98.7999 4.53583C100.254 3.18081 101.963 2.13756 103.92 1.40909C105.878 0.683608 107.991 0.317871 110.258 0.317871C112.356 0.317871 114.419 0.689603 116.448 1.43007C118.478 2.17054 120.121 3.25576 121.38 4.68273L116.511 9.55122C115.84 8.62789 114.958 7.94138 113.867 7.49471C112.776 7.04803 111.655 6.82319 110.509 6.82319C109.25 6.82319 108.096 7.05402 107.047 7.51569C105.998 7.97736 105.095 8.6129 104.34 9.42531C103.584 10.2377 102.997 11.197 102.577 12.3002C102.157 13.4064 101.948 14.6146 101.948 15.9306C101.948 17.2467 102.157 18.5058 102.577 19.624C102.997 20.7422 103.575 21.7015 104.319 22.4989C105.059 23.2963 105.95 23.9199 106.984 24.3666C108.018 24.8162 109.151 25.0381 110.384 25.0381C111.811 25.0381 113.055 24.7593 114.119 24.1987C115.183 23.6381 116.034 22.9126 116.679 22.0162L121.673 26.7169C120.357 28.2278 118.736 29.4239 116.805 30.3053Z" fill="white"/>
  <path d="M181.315 30.8299L169.354 11.3949H169.228L169.393 30.8299H162.429V1.1123H170.61L182.533 20.5023H182.658L182.491 1.1123H189.458V30.8299H181.315Z" fill="white"/>
  <path d="M150.285 15.9275C150.285 20.9429 146.157 25.008 141.066 25.008C135.976 25.008 131.848 20.9429 131.848 15.9275C131.848 10.9121 135.973 6.84707 141.066 6.84707C146.16 6.84707 150.285 10.9121 150.285 15.9275ZM157.231 15.9275C157.231 7.13187 149.994 0 141.066 0C132.139 0 124.902 7.12887 124.902 15.9275C124.902 24.7262 132.139 31.8551 141.066 31.8551C149.994 31.8551 157.231 24.7262 157.231 15.9275Z" fill="white"/>
</svg>